<svg width="1800" height="800" viewBox="0 0 1800 800" fill="none" xmlns="http://www.w3.org/2000/svg">
<rect x="1" y="1" width="1798" height="798" fill="white" stroke="#F5E6E0" stroke-width="2"/>
<rect x="10" y="10" width="1780" height="780" fill="#F5E6E0"/>
<mask id="mask0_239_5921" style="mask-type:alpha" maskUnits="userSpaceOnUse" x="10" y="10" width="1780" height="780">
<rect x="10" y="10" width="1780" height="780" fill="#F5E6E0"/>
</mask>
<g mask="url(#mask0_239_5921)">
<g opacity="0.4">
<path d="M455.1 136.6L322.2 290.2L323.7 291.5L456.6 137.9L455.1 136.6Z" fill="white"/>
<path d="M461 141.7L328.1 295.3L329.6 296.6L462.5 143L461 141.7Z" fill="white"/>
<path d="M466.9 146.8L334 300.3L335.5 301.6L468.4 148.1L466.9 146.8Z" fill="white"/>
<path d="M472.8 151.9L339.9 305.4L341.4 306.7L474.3 153.2L472.8 151.9Z" fill="white"/>
<path d="M478.7 157L345.8 310.5L347.3 311.8L480.2 158.3L478.7 157Z" fill="white"/>
<path d="M484.6 162L351.7 315.6L353.2 316.9L486.1 163.3L484.6 162Z" fill="white"/>
<path d="M490.5 167.1L357.6 320.7L359.1 322L492 168.4L490.5 167.1Z" fill="white"/>
<path d="M496.4 172.2L363.4 325.7L365 327L497.9 173.5L496.4 172.2Z" fill="white"/>
<path d="M502.2 177.3L369.3 330.8L370.9 332.1L503.8 178.6L502.2 177.3Z" fill="white"/>
<path d="M508.1 182.3L375.2 335.9L376.7 337.2L509.6 183.7L508.1 182.3Z" fill="white"/>
<path d="M514 187.4L381.1 341L382.6 342.3L515.5 188.7L514 187.4Z" fill="white"/>
<path d="M519.9 192.5L387 346L388.5 347.4L521.4 193.8L519.9 192.5Z" fill="white"/>
<path d="M525.8 197.6L392.9 351.1L394.4 352.4L527.3 198.9L525.8 197.6Z" fill="white"/>
<path d="M531.7 202.7L398.8 356.2L400.3 357.5L533.2 204L531.7 202.7Z" fill="white"/>
<path d="M537.6 207.7L404.7 361.3L406.2 362.6L539.1 209L537.6 207.7Z" fill="white"/>
<path d="M543.5 212.8L410.6 366.4L412.1 367.7L545 214.1L543.5 212.8Z" fill="white"/>
<path d="M549.4 217.9L416.5 371.4L418 372.7L550.9 219.2L549.4 217.9Z" fill="white"/>
<path d="M555.2 223L422.3 376.5L423.9 377.8L556.8 224.3L555.2 223Z" fill="white"/>
<path d="M561.1 228.1L428.2 381.6L429.7 382.9L562.7 229.4L561.1 228.1Z" fill="white"/>
<path d="M567 233.1L434.1 386.7L435.6 388L568.5 234.4L567 233.1Z" fill="white"/>
<path d="M572.9 238.2L440 391.8L441.5 393.1L574.4 239.5L572.9 238.2Z" fill="white"/>
<path d="M578.8 243.3L445.9 396.8L447.4 398.1L580.3 244.6L578.8 243.3Z" fill="white"/>
<path d="M584.7 248.4L451.8 401.9L453.3 403.2L586.2 249.7L584.7 248.4Z" fill="white"/>
<path d="M590.6 253.5L457.7 407L459.2 408.3L592.1 254.8L590.6 253.5Z" fill="white"/>
<path d="M596.5 258.5L463.6 412.1L465.1 413.4L598 259.8L596.5 258.5Z" fill="white"/>
<path d="M602.4 263.6L469.5 417.2L471 418.5L603.9 264.9L602.4 263.6Z" fill="white"/>
<path d="M1115.9 476L983 629.6L984.5 630.9L1117.4 477.3L1115.9 476Z" fill="white"/>
<path d="M1121.8 481.1L988.9 634.7L990.4 636L1123.3 482.4L1121.8 481.1Z" fill="white"/>
<path d="M1127.7 486.2L994.8 639.7L996.3 641L1129.2 487.5L1127.7 486.2Z" fill="white"/>
<path d="M1133.6 491.3L1000.7 644.8L1002.2 646.1L1135.1 492.6L1133.6 491.3Z" fill="white"/>
<path d="M1139.5 496.4L1006.6 649.9L1008.1 651.2L1141 497.7L1139.5 496.4Z" fill="white"/>
<path d="M1145.4 501.4L1012.5 655L1014 656.3L1146.9 502.7L1145.4 501.4Z" fill="white"/>
<path d="M1151.3 506.5L1018.4 660.1L1019.9 661.4L1152.8 507.8L1151.3 506.5Z" fill="white"/>
<path d="M1157.2 511.6L1024.2 665.1L1025.8 666.4L1158.7 512.9L1157.2 511.6Z" fill="white"/>
<path d="M1163 516.7L1030.1 670.2L1031.7 671.5L1164.6 518L1163 516.7Z" fill="white"/>
<path d="M1168.9 521.7L1036 675.3L1037.5 676.6L1170.4 523.1L1168.9 521.7Z" fill="white"/>
<path d="M1174.8 526.8L1041.9 680.4L1043.4 681.7L1176.3 528.1L1174.8 526.8Z" fill="white"/>
<path d="M1180.7 531.9L1047.8 685.4L1049.3 686.8L1182.2 533.2L1180.7 531.9Z" fill="white"/>
<path d="M1186.6 537L1053.7 690.5L1055.2 691.8L1188.1 538.3L1186.6 537Z" fill="white"/>
<path d="M1192.5 542.1L1059.6 695.6L1061.1 696.9L1194 543.4L1192.5 542.1Z" fill="white"/>
<path d="M1198.4 547.1L1065.5 700.7L1067 702L1199.9 548.4L1198.4 547.1Z" fill="white"/>
<path d="M1204.3 552.2L1071.4 705.8L1072.9 707.1L1205.8 553.5L1204.3 552.2Z" fill="white"/>
<path d="M1210.2 557.3L1077.3 710.8L1078.8 712.1L1211.7 558.6L1210.2 557.3Z" fill="white"/>
<path d="M1216 562.4L1083.1 715.9L1084.7 717.2L1217.6 563.7L1216 562.4Z" fill="white"/>
<path d="M1221.9 567.5L1089 721L1090.5 722.3L1223.5 568.8L1221.9 567.5Z" fill="white"/>
<path d="M1227.8 572.5L1094.9 726.1L1096.4 727.4L1229.3 573.8L1227.8 572.5Z" fill="white"/>
<path d="M1233.7 577.6L1100.8 731.2L1102.3 732.5L1235.2 578.9L1233.7 577.6Z" fill="white"/>
<path d="M1239.6 582.7L1106.7 736.2L1108.2 737.5L1241.1 584L1239.6 582.7Z" fill="white"/>
<path d="M1245.5 587.8L1112.6 741.3L1114.1 742.6L1247 589.1L1245.5 587.8Z" fill="white"/>
<path d="M1251.4 592.9L1118.5 746.4L1120 747.7L1252.9 594.2L1251.4 592.9Z" fill="white"/>
<path d="M1257.3 597.9L1124.4 751.5L1125.9 752.8L1258.8 599.2L1257.3 597.9Z" fill="white"/>
<path d="M1263.2 603L1130.3 756.6L1131.8 757.9L1264.7 604.3L1263.2 603Z" fill="white"/>
<path d="M1696.8 149.3L1563.9 302.9L1565.4 304.2L1698.4 150.6L1696.8 149.3Z" fill="white"/>
<path d="M1702.7 154.4L1569.8 308L1571.3 309.3L1704.2 155.7L1702.7 154.4Z" fill="white"/>
<path d="M1708.6 159.5L1575.7 313L1577.2 314.3L1710.1 160.8L1708.6 159.5Z" fill="white"/>
<path d="M1714.5 164.6L1581.6 318.1L1583.1 319.4L1716 165.9L1714.5 164.6Z" fill="white"/>
<path d="M1720.4 169.6L1587.5 323.2L1589 324.5L1721.9 171L1720.4 169.6Z" fill="white"/>
<path d="M1726.3 174.7L1593.4 328.3L1594.9 329.6L1727.8 176L1726.3 174.7Z" fill="white"/>
<path d="M1732.2 179.8L1599.3 333.4L1600.8 334.7L1733.7 181.1L1732.2 179.8Z" fill="white"/>
<path d="M1738.1 184.9L1605.2 338.4L1606.7 339.7L1739.6 186.2L1738.1 184.9Z" fill="white"/>
<path d="M1744 190L1611 343.5L1612.6 344.8L1745.5 191.3L1744 190Z" fill="white"/>
<path d="M1749.8 195L1616.9 348.6L1618.4 349.9L1751.4 196.4L1749.8 195Z" fill="white"/>
<path d="M1755.7 200.1L1622.8 353.7L1624.3 355L1757.2 201.4L1755.7 200.1Z" fill="white"/>
<path d="M1761.6 205.2L1628.7 358.7L1630.2 360.1L1763.1 206.5L1761.6 205.2Z" fill="white"/>
<path d="M1767.5 210.3L1634.6 363.8L1636.1 365.1L1769 211.6L1767.5 210.3Z" fill="white"/>
<path d="M1773.4 215.4L1640.5 368.9L1642 370.2L1774.9 216.7L1773.4 215.4Z" fill="white"/>
<path d="M1779.3 220.4L1646.4 374L1647.9 375.3L1780.8 221.7L1779.3 220.4Z" fill="white"/>
<path d="M1785.2 225.5L1652.3 379.1L1653.8 380.4L1786.7 226.8L1785.2 225.5Z" fill="white"/>
<path d="M1791.1 230.6L1658.2 384.1L1659.7 385.4L1792.6 231.9L1791.1 230.6Z" fill="white"/>
<path d="M1797 235.7L1664 389.2L1665.6 390.5L1798.5 237L1797 235.7Z" fill="white"/>
<path d="M1802.8 240.8L1669.9 394.3L1671.5 395.6L1804.4 242.1L1802.8 240.8Z" fill="white"/>
<path d="M1808.7 245.8L1675.8 399.4L1677.3 400.7L1810.2 247.1L1808.7 245.8Z" fill="white"/>
<path d="M1814.6 250.9L1681.7 404.5L1683.2 405.8L1816.1 252.2L1814.6 250.9Z" fill="white"/>
<path d="M1820.5 256L1687.6 409.5L1689.1 410.8L1822 257.3L1820.5 256Z" fill="white"/>
<path d="M1826.4 261.1L1693.5 414.6L1695 415.9L1827.9 262.4L1826.4 261.1Z" fill="white"/>
<path d="M1832.3 266.2L1699.4 419.7L1700.9 421L1833.8 267.5L1832.3 266.2Z" fill="white"/>
<path d="M1838.2 271.2L1705.3 424.8L1706.8 426.1L1839.7 272.5L1838.2 271.2Z" fill="white"/>
<path d="M1844.1 276.3L1711.2 429.9L1712.7 431.2L1845.6 277.6L1844.1 276.3Z" fill="white"/>
<path d="M14 552.9L12.5 551.5L-30 593.9V596.7L14 552.9Z" fill="white"/>
<path d="M19.5 558.4L18 557L-30 604.9V607.7L19.5 558.4Z" fill="white"/>
<path d="M25 563.9L23.5 562.5L-30 615.9V618.7L25 563.9Z" fill="white"/>
<path d="M30.5 569.4L29 568L-30 626.9V629.7L30.5 569.4Z" fill="white"/>
<path d="M36 574.9L34.5 573.5L-30 637.8V640.7L36 574.9Z" fill="white"/>
<path d="M41.5 580.4L40 579L-30 648.8V651.6L41.5 580.4Z" fill="white"/>
<path d="M47 585.9L45.5 584.5L-30 659.8V662.6L47 585.9Z" fill="white"/>
<path d="M52.5 591.4L51 590L-30 670.8V673.6L52.5 591.4Z" fill="white"/>
<path d="M58 596.9L56.5 595.5L-30 681.7V684.6L58 596.9Z" fill="white"/>
<path d="M63.5 602.4L62 601L-30 692.7V695.5L63.5 602.4Z" fill="white"/>
<path d="M68.9 607.9L67.5 606.5L-30 703.7V706.5L68.9 607.9Z" fill="white"/>
<path d="M74.4 613.4L73 612L-30 714.7V717.5L74.4 613.4Z" fill="white"/>
<path d="M79.9 618.9L78.5 617.5L-30 725.7V728.5L79.9 618.9Z" fill="white"/>
<path d="M85.4 624.4L84 623L-30 736.6V739.5L85.4 624.4Z" fill="white"/>
<path d="M90.9 629.9L89.5 628.5L-30 747.6V750.4L90.9 629.9Z" fill="white"/>
<path d="M96.4 635.4L95 634L-30 758.6V761.4L96.4 635.4Z" fill="white"/>
<path d="M101.9 640.9L100.5 639.5L-30 769.6V772.4L101.9 640.9Z" fill="white"/>
<path d="M107.4 646.4L106 645L-30 780.5V783.4L107.4 646.4Z" fill="white"/>
<path d="M629.5 705.7C656.672 705.7 678.7 683.672 678.7 656.5C678.7 629.328 656.672 607.3 629.5 607.3C602.328 607.3 580.3 629.328 580.3 656.5C580.3 683.672 602.328 705.7 629.5 705.7Z" stroke="white" stroke-width="5" stroke-miterlimit="10"/>
<path d="M1042.2 314.3C1069.37 314.3 1091.4 292.272 1091.4 265.1C1091.4 237.928 1069.37 215.9 1042.2 215.9C1015.03 215.9 993 237.928 993 265.1C993 292.272 1015.03 314.3 1042.2 314.3Z" stroke="white" stroke-width="5" stroke-miterlimit="10"/>
<path d="M1770.28 762.927C1795.38 752.528 1807.3 723.747 1796.9 698.643C1786.5 673.538 1757.72 661.617 1732.62 672.015C1707.51 682.414 1695.59 711.196 1705.99 736.3C1716.39 761.405 1745.17 773.326 1770.28 762.927Z" stroke="white" stroke-width="5" stroke-miterlimit="10"/>
<path d="M256.655 494.776C261.573 474.261 248.929 453.644 228.414 448.726C207.899 443.808 187.281 456.452 182.364 476.967C177.446 497.482 190.09 518.1 210.605 523.017C231.12 527.935 251.737 515.291 256.655 494.776Z" stroke="white" stroke-width="5" stroke-miterlimit="10"/>
<path d="M1410.14 301.66C1414.99 281.128 1402.27 260.553 1381.74 255.705C1361.21 250.857 1340.64 263.571 1335.79 284.103C1330.94 304.635 1343.65 325.21 1364.19 330.058C1384.72 334.906 1405.29 322.192 1410.14 301.66Z" stroke="white" stroke-width="5" stroke-miterlimit="10"/>
<path d="M1047 366L1070.4 386L1093.8 366L1117.2 386L1140.5 366L1163.9 386L1187.3 366L1210.7 386L1234.1 366L1257.5 386L1280.9 366L1304.3 386L1327.7 366L1351.1 386L1374.5 366" stroke="white" stroke-width="3" stroke-miterlimit="10"/>
<path d="M1047 393L1070.4 413L1093.8 393L1117.2 413L1140.5 393L1163.9 413L1187.3 393L1210.7 413L1234.1 393L1257.5 413L1280.9 393L1304.3 413L1327.7 393L1351.1 413L1374.5 393" stroke="white" stroke-width="3" stroke-miterlimit="10"/>
<path d="M379.2 -120L42.2 295.4L43.8 296.6L381.8 -120H379.2Z" fill="white"/>
<path d="M293.8 83.6L459 -120H456.4L292.2 82.4L293.8 83.6Z" fill="white"/>
<path d="M1820.6 -120H1818.1L1531.8 232.9L1533.3 234.2L1820.6 -120Z" fill="white"/>
<path d="M1781.8 19.9L1783.3 21.2L1890 -110.3V-113.5L1781.8 19.9Z" fill="white"/>
<path d="M448.2 604.4L257.1 840H259.6L449.8 605.6L448.2 604.4Z" fill="white"/>
<path d="M334.3 840H336.8L699.8 392.6L698.2 391.4L334.3 840Z" fill="white"/>
<path d="M747 448.6H749.5L1112.5 1.19998L1110.9 0L747 448.6Z" fill="white"/>
<path d="M1516 682L1387.8 840H1390.4L1517.5 683.3L1516 682Z" fill="white"/>
<path d="M1058.2 -23L930 135H932.6L1059.7 -21.7L1058.2 -23Z" fill="white"/>
<path d="M1465 840H1467.6L1767.5 470.3L1766 469L1465 840Z" fill="white"/>
</g>
</g>
<path opacity="0.8" d="M1507.79 156.273L1507.79 157.719L1509.16 158.172L1520.78 162.012L1520.78 187.365L1509.16 191.205L1507.79 191.659L1507.79 193.104L1507.79 216.49L1507.79 219.344L1510.47 218.37L1590.12 189.448L1591.44 188.97L1591.44 187.568L1591.44 162.035L1591.44 160.636L1590.12 160.156L1510.48 131.121L1507.79 130.142L1507.79 133L1507.79 156.273ZM1589.44 254.178L1591.44 254.178L1591.44 252.178L1591.44 230.147L1591.44 228.147L1589.44 228.147L1543.23 228.147C1535.6 228.147 1528.99 229.628 1523.5 232.695L1523.49 232.7L1523.48 232.706C1518.04 235.826 1513.89 240.093 1511.07 245.49L1511.06 245.506L1511.05 245.522C1508.34 250.956 1507 257.068 1507 263.815C1507 270.563 1508.34 276.741 1511.04 282.313L1511.05 282.323C1513.85 288.015 1518 292.52 1523.45 295.805L1523.46 295.812C1529.02 299.119 1535.64 300.725 1543.23 300.725L1589.44 300.725L1591.44 300.725L1591.44 298.725L1591.44 276.581L1591.44 274.581L1589.44 274.581L1543.23 274.581C1539.34 274.581 1536.55 273.613 1534.61 271.913L1534.6 271.91C1532.83 270.366 1531.79 267.948 1531.79 264.267C1531.79 260.595 1532.83 258.18 1534.59 256.636C1536.44 255.09 1539.23 254.178 1543.23 254.178L1589.44 254.178ZM1589.44 379.686L1591.44 379.686L1591.44 377.686L1591.44 313.289L1591.44 311.289L1589.44 311.289L1571.82 311.289L1569.82 311.289L1569.82 313.289L1569.82 332.303L1509.79 332.303L1507.79 332.303L1507.79 334.303L1507.79 356.446L1507.79 358.446L1509.79 358.446L1569.82 358.447L1569.82 377.686L1569.82 379.686L1571.82 379.686L1589.44 379.686ZM1589.44 416.349L1591.44 416.349L1591.44 414.349L1591.44 392.319L1591.44 390.319L1589.44 390.319L1543.23 390.319C1535.6 390.319 1528.99 391.799 1523.5 394.866L1523.49 394.871L1523.48 394.877C1518.04 397.997 1513.89 402.264 1511.07 407.661L1511.06 407.677L1511.05 407.693C1508.34 413.127 1507 419.239 1507 425.986C1507 432.734 1508.34 438.912 1511.04 444.484L1511.05 444.495C1513.85 450.187 1518 454.692 1523.45 457.977L1523.46 457.983C1529.02 461.29 1535.64 462.896 1543.23 462.896L1589.44 462.896L1591.44 462.896L1591.44 460.896L1591.44 438.752L1591.44 436.752L1589.44 436.752L1543.23 436.752C1539.34 436.752 1536.55 435.784 1534.61 434.084L1534.6 434.081C1532.83 432.538 1531.79 430.119 1531.79 426.438C1531.79 422.766 1532.83 420.351 1534.59 418.807C1536.44 417.261 1539.23 416.349 1543.23 416.349L1589.44 416.349ZM1589.44 574.847L1591.44 574.847L1591.44 572.847L1591.44 546.184L1591.44 544.802L1590.15 544.313L1543.3 526.618L1590.16 508.508L1591.44 508.013L1591.44 506.642L1591.44 479.866L1591.44 477.866L1589.44 477.866L1509.79 477.866L1507.79 477.866L1507.79 479.866L1507.79 502.01L1507.79 504.01L1509.79 504.01L1542.04 504.01L1509.14 515.257L1507.79 515.719L1507.79 517.149L1507.79 535.677L1507.79 537.107L1509.14 537.57L1541.71 548.703L1509.79 548.703L1507.79 548.703L1507.79 550.703L1507.79 572.847L1507.79 574.847L1509.79 574.847L1589.44 574.847ZM1507.79 666.005L1507.79 668.005L1509.79 668.005L1589.44 668.005L1591.44 668.005L1591.44 666.005L1591.44 643.861L1591.44 641.861L1589.44 641.861L1551.07 641.861L1590.53 616.048L1591.44 615.456L1591.44 614.374L1591.44 592.231L1591.44 590.231L1589.44 590.231L1509.79 590.231L1507.79 590.231L1507.79 592.231L1507.79 614.374L1507.79 616.374L1509.79 616.374L1547.66 616.374L1508.69 642.194L1507.79 642.787L1507.79 643.861L1507.79 666.005ZM1541.73 168.979L1559.13 174.701L1541.73 180.5L1541.73 168.979Z" stroke="white" stroke-width="4"/>
</svg>
